<?xml version="1.0" standalone="no"?>
<!DOCTYPE svg PUBLIC "-//W3C//DTD SVG 20010904//EN"
 "http://www.w3.org/TR/2001/REC-SVG-20010904/DTD/svg10.dtd">
<svg version="1.0" xmlns="http://www.w3.org/2000/svg"
 width="980.000000pt" height="980.000000pt" viewBox="0 0 980.000000 980.000000"
 preserveAspectRatio="xMidYMid meet">
<metadata>
Created by potrace 1.16, written by Peter Selinger 2001-2019
</metadata>
<g transform="translate(0.000000,980.000000) scale(0.100000,-0.100000)"
fill="#c83665" stroke="none">
<path d="M4560 9789 c-1035 -75 -1998 -463 -2800 -1128 -150 -123 -501 -475
-622 -621 -534 -647 -881 -1374 -1042 -2180 -259 -1293 18 -2648 761 -3727
277 -403 628 -778 1018 -1087 440 -348 980 -636 1525 -811 1440 -463 3025
-232 4267 622 407 279 799 649 1099 1034 540 695 884 1520 993 2384 178 1410
-247 2797 -1185 3865 -112 128 -386 398 -509 501 -762 642 -1665 1026 -2665
1134 -174 19 -664 27 -840 14z m525 -869 c105 -6 245 -17 312 -25 1130 -139
2152 -742 2827 -1668 842 -1156 1019 -2689 465 -4011 -278 -662 -750 -1267
-1324 -1698 -1390 -1042 -3281 -1103 -4729 -151 -940 618 -1588 1590 -1790
2686 -54 290 -60 368 -61 747 0 371 5 435 51 710 180 1070 791 2032 1699 2674
609 431 1378 696 2131 735 220 12 214 12 419 1z"/>
<path d="M4660 7850 l0 -289 -32 -5 c-18 -3 -73 -10 -123 -16 -364 -44 -655
-152 -892 -329 -272 -204 -445 -467 -515 -781 -31 -141 -33 -437 -4 -570 68
-315 254 -588 520 -765 155 -103 545 -275 761 -336 44 -12 125 -32 180 -44
l100 -21 3 -1001 2 -1000 -57 9 c-156 24 -304 86 -428 179 -105 78 -243 225
-297 315 -81 134 -148 323 -185 513 -9 48 -19 89 -22 93 -5 6 -718 -106 -726
-114 -7 -8 27 -225 50 -314 32 -122 97 -286 153 -380 102 -175 265 -358 418
-471 227 -167 568 -287 969 -342 l120 -17 3 -407 2 -407 290 0 290 0 0 409 0
409 88 7 c400 32 691 154 1002 422 264 227 431 499 494 805 101 490 -37 966
-370 1277 -225 210 -592 384 -1054 500 l-155 39 -3 901 -2 901 23 0 c39 0 129
-30 201 -68 86 -45 267 -216 332 -314 60 -89 109 -208 139 -332 14 -54 26
-100 28 -102 5 -5 736 92 742 98 7 7 -27 158 -57 248 -52 159 -149 330 -263
463 -168 196 -485 401 -730 472 -75 22 -200 45 -382 71 l-33 5 0 289 0 290
-290 0 -290 0 0 -290z m0 -1686 l0 -865 -22 6 c-411 116 -662 293 -778 549
-46 102 -63 186 -63 321 -1 230 67 390 237 560 157 156 304 233 551 288 11 3
32 5 48 6 l27 1 0 -866z m665 -1583 c146 -45 313 -121 404 -184 80 -55 220
-198 266 -271 164 -265 149 -692 -36 -963 -88 -129 -271 -302 -393 -371 -73
-42 -210 -87 -281 -94 l-40 -3 -3 953 c-2 758 0 952 10 952 7 0 40 -9 73 -19z"/>
</g>
</svg>
