<svg width="640" height="480" xmlns="http://www.w3.org/2000/svg" style="vector-effect: non-scaling-stroke;">
 <!-- Created with Method Draw - http://github.com/duopixel/Method-Draw/ -->

 <g>
  <title>Layer 1</title>
  <!-- Created with Method Draw - http://github.com/duopixel/Method-Draw/ -->
  <!-- Created with Method Draw - http://github.com/duopixel/Method-Draw/ -->
  <g id="svg_58">
   <g transform="matrix(7.89989, 0, 0, 12.0818, 6.12531e-06, 0)" id="svg_57">
    <title>Layer 1</title>
    <!-- Created with Method Draw - http://github.com/duopixel/Method-Draw/ -->
    <g id="svg_50">
     <g id="svg_51" transform="matrix(0.412501, 0, 0, 0.412501, 0, 0)">
      <title>Layer 1</title>
      <metadata>Svg Vector Icons : http://www.onlinewebfonts.com/icon</metadata>
      <g id="svg_52">
       <g transform="matrix(0.2, 0, 0, 0.2, 0, 0)" id="svg_53">
        <g id="svg_54" transform="translate(0, 511) scale(0.1, -0.1)">
         <path fill="#ffffff" id="svg_55" d="m992.74972,4979.15977c-33.4,-274.5 -241.2,-584.9 -492.6,-728.6c-105.2,-61.6 -233.5,-102.6 -405.3,-128.3l-94.9,-15.4l5.1,-1403.3l7.7,-1403.3l130.8,-15.4c413,-51.3 800.4,-433.6 849.2,-838.9l15.4,-133.4l3868.7,0l3868.7,0l15.4,97.5c82.1,492.6 484.9,877.4 923.6,877.4l115.4,0l0,1408.4l0,1408.4l-133.4,18c-490,66.7 -820.9,392.5 -905.6,892.8l-15.4,94.9l-3868.7,0l-3868.7,0l-15.4,-130.8zm7652.7,-36c25.7,-30.8 25.7,-46.2 0,-77c-69.3,-82.1 -182.1,-20.5 -143.7,77c7.7,20.5 35.9,38.5 61.6,38.5c28.3,0 64.2,-17.9 82.1,-38.5zm-2.5,-356.6c15.4,-18 23.1,-51.3 12.8,-74.4c-38.5,-100.1 -184.7,-48.8 -153.9,53.9c20.5,64.1 97.5,74.4 141.1,20.5zm0,-372c33.3,-61.6 -23.1,-146.2 -84.7,-123.1c-59,23.1 -79.5,87.2 -41,133.4c43.6,51.3 94.9,48.8 125.7,-10.3zm-484.9,-259.1l0,-102.6l-3404.4,5.1l-3406.9,7.7l-7.7,97.5l-7.7,94.9l3412,0l3414.6,0l0,-102.6l0.1,0zm497.7,-120.5c23.1,-56.4 -33.4,-115.4 -97.5,-105.2c-66.7,10.3 -84.6,97.5 -28.2,138.5c51.3,38.5 105.2,23.1 125.7,-33.3zm-10.3,-354.1c25.7,-30.8 25.7,-46.2 0,-77c-69.3,-82.1 -182.1,-20.5 -143.7,77c7.7,20.5 35.9,38.5 61.6,38.5c28.3,0 64.2,-17.9 82.1,-38.5zm-5643.9,-346.3l0,-102.6l-141.1,0l-141.1,0l0,-423.3l0,-423.3l-128.3,0l-128.3,0l0,423.3l0,423.3l-128.3,0l-128.3,0l0,102.6l0,102.6l397.6,0l397.6,0l0,-102.6l0.2,0zm359.1,-423.3l0,-525.9l-115.4,0l-115.4,0l0,525.9l0,525.9l115.4,0l115.4,0l0,-525.9zm944.1,502.8c23.1,-12.8 28.2,-48.7 18,-110.3l-18,-89.8l-102.6,25.7c-218.1,53.9 -402.8,-69.3 -425.9,-284.8c-23.1,-261.7 130.8,-410.5 392.5,-379.7l136,15.4l15.4,-82.1c7.7,-43.6 5.1,-92.3 -10.3,-107.8c-12.8,-12.8 -115.4,-25.7 -223.2,-25.7c-156.5,0 -223.2,12.8 -307.9,56.4c-354,184.7 -343.8,756.8 15.4,946.7c87.2,46.2 153.9,59 295,59c100.2,0.1 197.7,-10.1 215.6,-23zm415.6,-212.9l0,-238.6l156.5,238.6l159,236l136,0c77,0 138.5,-7.7 138.5,-15.4c0,-7.7 -74.4,-110.3 -164.2,-225.8l-164.2,-210.4l177,-289.9c97.5,-161.6 177,-295 177,-300.1c0,-5.1 -61.6,-10.3 -133.4,-10.3l-136,0l-125.6,220.7c-118,210.4 -125.7,218.1 -171.8,174.5c-38.5,-35.9 -48.7,-79.5 -48.7,-220.6l0,-174.4l-115.5,0l-115.4,0l0,525.8l0,525.9l115.4,0l115.4,0l0,-236zm1359.7,133.4l0,-102.6l-205.2,0l-205.2,0l0,-102.6l0,-102.7l192.3,0l192.4,0l0,-102.6l0,-102.6l-192.4,0l-192.4,0l0,-115.4l0,-115.4l218.1,0l218.1,0l0,-102.6l0,-102.6l-333.5,0l-333.5,0l0,525.8l0,525.9l320.7,0l320.7,0l0,-102.6l-0.1,0zm923.6,0l0,-102.6l-141.1,0l-141.1,0l0,-423.3l0,-423.3l-125.7,0l-128.3,0l5.1,423.3l5.1,423.3l-133.4,0l-136,0l0,102.6l0,102.6l397.7,0l397.6,0l0,-102.6l0.1,0zm1641.8,-23.1c18,-38.5 15.4,-61.6 -15.4,-92.4c-48.8,-46.2 -84.7,-41 -123.2,18c-17.9,30.8 -15.4,53.9 7.7,82.1c46.3,56.4 97.6,51.3 130.9,-7.7zm-6888.2,-300.2c64.1,-7.7 115.4,-23.1 115.4,-33.3s-35.9,-51.3 -79.5,-94.9c-71.8,-69.3 -77,-82.1 -61.6,-197.5l18,-123.1l-110.3,53.8l-110.3,56.4l-112.9,-53.9l-112.9,-56.4l18,123.1c15.4,115.4 10.3,128.3 -61.6,197.5c-43.6,43.6 -79.5,84.7 -79.5,94.9s51.3,25.7 115.4,35.9c107.8,15.4 123.1,25.7 174.4,130.8l53.9,115.4l59,-115.4c53.9,-105 69.3,-115.3 174.5,-133.3zm5977.5,120.6c41,-92.4 53.9,-102.6 171.9,-118l128.3,-18l-87.2,-94.9c-84.7,-87.2 -87.2,-100 -69.3,-205.2c12.8,-64.1 18,-118 12.8,-123.1c-2.5,-5.1 -53.9,18 -112.9,48.8l-102.6,59l-107.8,-61.6c-59,-33.3 -110.3,-53.9 -115.4,-48.7s2.6,59 15.4,120.6c25.7,110.3 23.1,118 -66.7,207.8l-92.3,94.9l125.7,17.9c115.4,15.4 128.3,23.1 171.9,118c25.7,56.4 53.9,102.6 64.1,102.6s38.5,-46.2 64.1,-100.1zm895.4,-171.9c48.7,-48.7 10.2,-146.2 -53.9,-133.4c-66.7,12.8 -100,87.2 -61.6,133.4c43.6,51.3 66.7,51.3 115.5,0zm25.6,-384.8c20.5,-53.9 -28.2,-112.9 -92.4,-112.9c-53.9,0 -84.6,56.4 -61.6,115.4c18,51.4 133.5,48.8 154,-2.5zm-12.8,-354c43.6,-51.3 5.1,-118 -64.1,-118c-66.7,0 -102.6,51.3 -77,115.4c17.9,48.8 102.6,51.3 141.1,2.6zm2.5,-372c18,-38.5 15.4,-61.6 -15.4,-92.3c-48.8,-46.2 -84.7,-41 -123.2,18c-17.9,30.8 -15.4,53.9 7.7,82.1c46.3,56.3 97.6,51.2 130.9,-7.8zm-487.4,-79.5l0,-102.6l-3404.4,5.1l-3406.9,7.7l-7.7,97.5l-7.7,94.9l3412,0l3414.6,0l0,-102.6l0.1,0zm497.7,-295.1c17.9,-51.3 -46.2,-125.7 -97.5,-107.8c-64.1,25.7 -82.1,97.5 -30.8,136c51.4,36 107.8,23.2 128.3,-28.2zm-10.3,-359.1c25.7,-30.8 25.7,-46.2 0,-77c-69.3,-82.1 -182.1,-20.5 -143.7,77c7.7,20.5 35.9,38.5 61.6,38.5c28.3,0 64.2,-18 82.1,-38.5zm0,-369.4c35.9,-71.8 -33.3,-141.1 -105.2,-105.2c-56.4,30.8 -64.1,77 -18,123.1s92.5,38.5 123.2,-17.9z"/>
        </g>
       </g>
      </g>
     </g>
    </g>
   </g>
  </g>
 </g>
</svg>