<svg width="640" height="480" xmlns="http://www.w3.org/2000/svg" style="vector-effect: non-scaling-stroke;">
 <!-- Created with Method Draw - http://github.com/duopixel/Method-Draw/ -->

 <g>
  <title>Layer 1</title>
  <!-- Created with Method Draw - http://github.com/duopixel/Method-Draw/ -->
  <!-- Created with Method Draw - http://github.com/duopixel/Method-Draw/ -->
  <!-- Created with Method Draw - http://github.com/duopixel/Method-Draw/ -->
  <g id="svg_72">
   <g transform="matrix(3.15489, 0, 0, 2.6287, 0, 0)" id="svg_70">
    <title>background</title>
   </g>
   <g transform="matrix(3.15489, 0, 0, 2.6287, 0, 0)" id="svg_71">
    <title>Layer 1</title>
    <!-- Created with Method Draw - http://github.com/duopixel/Method-Draw/ -->
    <!-- Created with Method Draw - http://github.com/duopixel/Method-Draw/ -->
    <!-- Created with Method Draw - http://github.com/duopixel/Method-Draw/ -->
    <g id="svg_65">
     <g id="svg_66" transform="matrix(3.62638, 0, 0, 3.62638, 0, 0)">
      <path d="m23.80142,13.39862c0,7.1 12,19.7 12.5,20.2l0.9,0.9l0.9,-0.9c0.5,-0.5 12.5,-13.1 12.5,-20.2c0,-7.4 -6,-13.4 -13.4,-13.4c-7.4,0 -13.4,6 -13.4,13.4zm17.8,-0.3c0,2.4 -2,4.4 -4.4,4.4c-2.4,0 -4.4,-2 -4.4,-4.4c0,-2.4 2,-4.4 4.4,-4.4c2.4,0 4.4,2 4.4,4.4z" id="svg_68" fill="#ffffff"/>
      <path d="m48.50142,23.59862c0,0 0,0 0,0c-0.9,0 -1.7,0.8 -1.7,1.7c0,0.9 0.8,1.7 1.7,1.7l0.7,0l1.8,9.5l-4.8,3.5l-30.7,-13l9.4,0c0.9,0 1.7,-0.8 1.7,-1.7c0,-0.9 -0.8,-1.7 -1.7,-1.7l-20.9,0l-4,26.7l49.2,0c3.7,0 6.7,-3 6.7,-6.7l-3.8,-20l-3.6,0zm-5.5,18.7l-6.5,4.7l-27.4,0l12,-13.9l21.9,9.2zm-36.1,-15.3l0,0l11,4.6l-13.2,15.4l-0.8,0l3,-20zm42.3,20l-6.9,0l9.5,-6.9l0.7,3.7c-0.1,1.8 -1.6,3.2 -3.3,3.2z" id="svg_67" fill="#ffffff"/>
     </g>
    </g>
   </g>
  </g>
 </g>
</svg>