<svg width="640" height="480" xmlns="http://www.w3.org/2000/svg" style="vector-effect: non-scaling-stroke;">
 <!-- Created with Method Draw - http://github.com/duopixel/Method-Draw/ -->

 <g>
  <title>Layer 1</title>
  <!-- Created with Method Draw - http://github.com/duopixel/Method-Draw/ -->
  <g id="svg_41">
   <g transform="matrix(3.19, 0, 0, 2.4, -3038.65, -1600.63)" id="svg_40">
    <title>Layer 1</title>
    <g id="svg_21">
     <g id="svg_37" transform="matrix(0.41219, 0, 0, 0.41219, 0, 0)">
      <path d="m2371.61246,1693.82986l0,-60.653c0,-8.382 6.781,-15.163 15.165,-15.163c8.38,0 15.161,6.781 15.161,15.163l0,60.653c0,8.38 -6.781,15.161 -15.161,15.161c-8.384,0.001 -15.165,-6.781 -15.165,-15.161zm257.772,15.162c8.378,0 15.163,-6.781 15.163,-15.161l0,-60.654c0,-8.382 -6.785,-15.163 -15.163,-15.163c-8.382,0 -15.168,6.781 -15.168,15.163l0,60.653c0,8.38 6.786,15.162 15.168,15.162zm166.788,272.928c0,66.996 -54.312,121.307 -121.303,121.307c-66.986,0 -121.302,-54.311 -121.302,-121.307c0,-66.986 54.315,-121.3 121.302,-121.3c66.991,0 121.303,54.313 121.303,121.3zm-30.322,0c0,-50.161 -40.81,-90.976 -90.98,-90.976c-50.166,0 -90.976,40.814 -90.976,90.976c0,50.171 40.81,90.98 90.976,90.98c50.17,0 90.98,-40.809 90.98,-90.98zm-333.585,-181.951l-60.653,0l0,60.651l60.653,0l0,-60.651zm-60.653,151.629l60.653,0l0,-60.654l-60.653,0l0,60.654zm90.977,-90.978l60.654,0l0,-60.651l-60.654,0l0,60.651zm0,90.978l60.654,0l0,-60.654l-60.654,0l0,60.654zm-121.301,27.307l0,-209.263l333.582,0l0,60.653l30.327,0l0,-118.281c0,-18.421 -14.692,-33.349 -32.843,-33.349l-12.647,0l0,15.166c0,16.701 -13.596,30.325 -30.322,30.325c-16.731,0 -30.326,-13.624 -30.326,-30.325l0,-15.166l-181.959,0l0,15.166c0,16.701 -13.593,30.325 -30.322,30.325c-16.733,0 -30.327,-13.624 -30.327,-30.325l0,-15.166l-12.632,0c-18.152,0 -32.858,14.928 -32.858,33.349l0,266.892c0,18.36 14.706,33.346 32.858,33.346l179.424,0l0,-30.331l-179.424,0c-1.374,-0.001 -2.531,-1.42 -2.531,-3.016zm272.928,-118.285l0,-60.651l-60.648,0l0,60.651l60.648,0zm106.143,121.3l-45.49,0l0,-45.49c0,-8.377 -6.781,-15.158 -15.163,-15.158s-15.159,6.781 -15.159,15.158l0,60.658c0,8.378 6.777,15.163 15.159,15.163l60.653,0c8.382,0 15.163,-6.785 15.163,-15.163c0,-8.382 -6.781,-15.168 -15.163,-15.168z" id="svg_38" fill="#ffffff"/>
     </g>
     <g id="svg_36" transform="matrix(0.41219, 0, 0, 0.41219, 0, 0)"/>
     <g id="svg_35" transform="matrix(0.41219, 0, 0, 0.41219, 0, 0)"/>
     <g id="svg_34" transform="matrix(0.41219, 0, 0, 0.41219, 0, 0)"/>
     <g id="svg_33" transform="matrix(0.41219, 0, 0, 0.41219, 0, 0)"/>
     <g id="svg_32" transform="matrix(0.41219, 0, 0, 0.41219, 0, 0)"/>
     <g id="svg_31" transform="matrix(0.41219, 0, 0, 0.41219, 0, 0)"/>
     <g id="svg_30" transform="matrix(0.41219, 0, 0, 0.41219, 0, 0)"/>
     <g id="svg_29" transform="matrix(0.41219, 0, 0, 0.41219, 0, 0)"/>
     <g id="svg_28" transform="matrix(0.41219, 0, 0, 0.41219, 0, 0)"/>
     <g id="svg_27" transform="matrix(0.41219, 0, 0, 0.41219, 0, 0)"/>
     <g id="svg_26" transform="matrix(0.41219, 0, 0, 0.41219, 0, 0)"/>
     <g id="svg_25" transform="matrix(0.41219, 0, 0, 0.41219, 0, 0)"/>
     <g id="svg_24" transform="matrix(0.41219, 0, 0, 0.41219, 0, 0)"/>
     <g id="svg_23" transform="matrix(0.41219, 0, 0, 0.41219, 0, 0)"/>
     <g id="svg_22" transform="matrix(0.41219, 0, 0, 0.41219, 0, 0)"/>
    </g>
   </g>
  </g>
 </g>
</svg>